<svg width="20.000000" height="16.000000" viewBox="0 0 20 16" fill="none" xmlns="http://www.w3.org/2000/svg" xmlns:xlink="http://www.w3.org/1999/xlink">
	<desc>
			Created with Pixso.
	</desc>
	<defs/>
	<path d="M19.543 2.49799C20 4.28003 20 8 20 8C20 8 20 11.72 19.543 13.502C19.289 14.487 18.546 15.262 17.605 15.524C15.896 16 10 16 10 16C10 16 4.10699 16 2.39499 15.524C1.45001 15.258 0.708008 14.484 0.457001 13.502C0 11.72 0 8 0 8C0 8 0 4.28003 0.457001 2.49799C0.710999 1.513 1.45401 0.737976 2.39499 0.476013C4.10699 0 10 0 10 0C10 0 15.896 0 17.605 0.476013C18.55 0.742004 19.292 1.51599 19.543 2.49799ZM8 11.5L14 8L8 4.5L8 11.5Z" fill="#FFFFFF" fill-opacity="1.000000" fill-rule="nonzero"/>
</svg>
