<svg width="20.000000" height="20.000000" viewBox="0 0 20 20" fill="none" xmlns="http://www.w3.org/2000/svg" xmlns:xlink="http://www.w3.org/1999/xlink">
	<desc>
			Created with Pixso.
	</desc>
	<defs/>
	<path d="M10 0C12.717 0 13.056 0.0100098 14.122 0.0599976C15.187 0.109985 15.912 0.276978 16.55 0.525024C17.21 0.778992 17.766 1.12299 18.322 1.67798C18.8305 2.17792 19.2239 2.78259 19.475 3.45001C19.722 4.08698 19.89 4.81299 19.94 5.87799C19.987 6.94397 20 7.28302 20 10C20 12.717 19.99 13.056 19.94 14.122C19.89 15.187 19.722 15.912 19.475 16.55C19.2247 17.2178 18.8311 17.8226 18.322 18.322C17.822 18.8303 17.2173 19.2238 16.55 19.475C15.913 19.722 15.187 19.89 14.122 19.94C13.056 19.987 12.717 20 10 20C7.28299 20 6.944 19.99 5.87799 19.94C4.81299 19.89 4.08801 19.722 3.45001 19.475C2.78232 19.2245 2.17752 18.8309 1.67801 18.322C1.1694 17.8222 0.77594 17.2175 0.524994 16.55C0.277008 15.913 0.109985 15.187 0.0599976 14.122C0.0130005 13.056 0 12.717 0 10C0 7.28302 0.0100098 6.94397 0.0599976 5.87799C0.109985 4.81201 0.277008 4.08801 0.524994 3.45001C0.775238 2.78217 1.16879 2.17731 1.67801 1.67798C2.17767 1.16925 2.78244 0.775757 3.45001 0.525024C4.08801 0.276978 4.81201 0.109985 5.87799 0.0599976C6.944 0.0130005 7.28299 0 10 0ZM10 5C8.67392 5 7.40216 5.52679 6.46448 6.46448C5.52679 7.40216 5 8.67389 5 10C5 11.3261 5.52679 12.5978 6.46448 13.5355C7.40216 14.4732 8.67392 15 10 15C11.3261 15 12.5978 14.4732 13.5355 13.5355C14.4732 12.5978 15 11.3261 15 10C15 8.67389 14.4732 7.40216 13.5355 6.46448C12.5978 5.52679 11.3261 5 10 5ZM16.5 4.75C16.5 4.41846 16.3683 4.10052 16.1339 3.86609C15.8995 3.63171 15.5815 3.5 15.25 3.5C14.9185 3.5 14.6005 3.63171 14.3661 3.86609C14.1317 4.10052 14 4.41846 14 4.75C14 5.08154 14.1317 5.39948 14.3661 5.63391C14.6005 5.86829 14.9185 6 15.25 6C15.5815 6 15.8995 5.86829 16.1339 5.63391C16.3683 5.39948 16.5 5.08154 16.5 4.75ZM10 7C10.7957 7 11.5587 7.31604 12.1213 7.87866C12.6839 8.44128 13 9.20435 13 10C13 10.7957 12.6839 11.5587 12.1213 12.1213C11.5587 12.684 10.7957 13 10 13C9.20435 13 8.44128 12.684 7.87869 12.1213C7.31607 11.5587 7 10.7957 7 10C7 9.20435 7.31607 8.44128 7.87869 7.87866C8.44128 7.31604 9.20435 7 10 7Z" fill="#FFFFFF" fill-opacity="1.000000" fill-rule="nonzero"/>
</svg>
